<?xml version="1.0" encoding="UTF-8"?>
<svg id="Layer_1" data-name="Layer 1" xmlns="http://www.w3.org/2000/svg" viewBox="0 0 400 346.68">
  <path d="M185.89,52.32c-10.75,13.02-21.5,26.04-32.25,39.06-3.04,3.68-6.01,7.41-9.12,11.03-5.05,5.89-12.93,6.74-18.62,2.13-5.85-4.74-6.7-12.88-1.71-18.95,21.53-26.2,43.11-52.37,64.74-78.49,6.01-7.26,16.49-7.14,22.52,.15,21.45,25.94,42.86,51.9,64.27,77.88,5.2,6.31,4.64,14.42-1.25,19.29-5.91,4.89-13.84,3.89-19.12-2.48-13.08-15.79-26.12-31.61-39.19-47.41-.78-.94-1.63-1.82-3.06-3.42,0,2.29,0,3.65,0,5.01,0,60.62,0,121.24,0,181.86,0,9.01-5.26,14.83-13.24,14.8-6.94-.03-12.54-5.26-13.05-12.23-.11-1.54-.06-3.09-.06-4.64,0-59.72,0-119.43,0-179.15v-4.13c-.28-.1-.55-.2-.83-.3Z"/>
  <path d="M384.55,344.96H15.45c-7.44,0-13.5-6.06-13.5-13.5v-105.15c0-7.14,5.79-12.92,12.92-12.92s12.92,5.79,12.92,12.92v92.8H372.2v-92.8c0-7.14,5.79-12.92,12.92-12.92s12.92,5.79,12.92,12.92v105.15c0,7.44-6.06,13.5-13.5,13.5Z"/>
</svg>